<svg version="1.1" id="svg2" xmlns="http://www.w3.org/2000/svg" x="0" y="0" viewBox="0 0 3000 3481.2" style="enable-background:new 0 0 3000 3481.2" xml:space="preserve"><style>.st1{fill:#fff}</style><g id="g14"><g id="g16"><g id="g22" transform="translate(649.836 676.938)"><path id="path24" d="M2077.7-676.9H-377.4c-199 0-272.4 73.4-272.4 272.5v2402.3c0 22.5.9 43.5 2.9 62.8 4.5 43.5 5.4 85.6 45.8 133.5 3.9 4.7 45.2 35.4 45.2 35.4 22.2 10.9 37.4 18.9 62.4 29l1208.9 506.5c62.8 28.8 89 40 134.6 39.1h.4c45.6.9 71.8-10.3 134.6-39.1l1208.9-506.5c25-10.1 40.2-18.1 62.4-29 0 0 41.3-30.7 45.2-35.4 40.4-47.9 41.3-90.1 45.8-133.5 2-19.4 2.9-40.3 2.9-62.8V-404.4c0-199.1-73.5-272.5-272.5-272.5" style="fill-rule:evenodd;clip-rule:evenodd;fill:#2f2d2e"/></g><g id="g26" transform="translate(623.23 286.175)"><path id="path28" class="st1" d="m1939.9 2129-.6 5.5-.6 6.1-1.1 5.5-1.7 5.5-1.1 5-1.7 5.5-2.2 5-2.2 4.4-2.2 5-2.8 4.4-2.8 4.4-3.3 4.4-2.8 4.4-3.3 3.9-3.9 3.9-3.3 3.3-4.4 3.9-3.9 3.3-4.4 3.3-4.4 2.7-4.4 3.3-5 2.8-5 2.2-5 2.8-5.5 2.2-5.5 2.2-5.5 1.7-5.5 1.7-5 1.7-5.5 1.1-5 1.1-5 1.1-5.5 1.1-5.5.6-5 .6-5.5.6-6.1.6-5.5.6H1769l-5.5-.6h-6.1l-5.5-.6-5.5-.6-6.1-.6-5.5-1.1-5.5-.6-5.5-1.1-5.5-1.1-5.5-1.1-5.5-1.1-5.5-1.7-5-1.1-5.5-1.7-5.5-1.7-5-2.2-5.5-1.7-5-1.7-5.5-2.2-5-2.2-5-2.2-5-2.7-5-2.2-5-2.8-4.4-2.8-5-2.8-4.4-2.8-4.4-2.8-4.4-3.3-4.4-3.3-4.4-3.3-4.4-3.3-3.9-3.3-4.4-3.9 3.3-4.4 3.8-3.9 3.3-4.4 3.9-4.4 3.3-3.9 3.3-4.4 3.9-4.4 3.3-3.9 3.9-4.4 3.3-3.9 3.9-4.4 3.3-4.4 3.3-3.9 3.8-4.4 3.3-4.4 3.8-3.9 3.3-4.4 4.4 3.3 5 3.3 4.4 3.3 5 3.3 4.4 2.8 5 3.3 4.4 2.8 5 2.2 4.4 2.8 5 2.2 5 2.2 5 2.2 5 1.7 5 2.2 5.5 1.7 5.5 1.7 5 1.7 5.5 1.1 5.5 1.1 5.5 1.1 6.1.6 5.5 1.1h5.5l6.1.6h12.1l6.1-.6 5.5-1.1 5-1.1 5-1.1 4.4-1.7 3.9-2.2 4.4-3.3 3.3-3.9 2.2-4.4 1.7-5 .5-5.5v-1.1l-.5-6.7-2.2-5.5-2.8-3.9-3.8-3.3-4.4-3.3-4.4-2.2-5-2.2-5.5-2.2-6.6-2.8-3.9-1.1-4.4-1.1-5-1.7-5-1.1-5.5-1.7-5.5-1.1-6.1-1.7-5.5-1.1-6.1-1.7-5.5-1.1-5.5-1.7-5.5-1.1-5.5-1.7-5-1.7-5.5-1.1-5-1.7-5-1.7-5-1.7-6.1-2.2-5.5-2.2-5.5-2.2-5.5-2.2-5-2.8-5.5-2.8-4.4-2.8-5-2.8-4.4-3.3-4.4-2.8-3.8-3.3-3.9-3.9-3.9-3.9-3.3-3.9-3.3-3.9-2.8-3.9-2.7-4.4-2.8-5-2.2-3.8-1.7-4.4-1.6-5-1.7-4.4-1.1-5.5-1.1-5-.6-5.5-.6-5.5-.6-6.1v-12.7l.6-5.5.6-5 .6-5.5 1.1-5 1.1-5 1.7-5 1.1-5 2.2-5 2.2-5 2.2-5 2.7-5 2.8-5 3.3-4.4 3.3-4.4 3.8-4.4 3.9-3.9 3.9-4.4 4.4-3.9 3.8-2.8 4.4-3.3 4.4-3.3 4.4-2.8 5-2.8 5-2.2 5-2.8 5-2.2 5.5-1.7 5.5-2.2 5-1.7 4.4-1.1 5-1.1 5-1.1 5.5-1.1 5-1.1 5.5-.6 5.5-.6 5.5-.6 5.5-.6H1779l6.1.6 6.1.6h5.5l6.1.6 5.5 1.1 6.1.6 5.5 1.1 5 1.1 5.5 1.1 5.5 1.1 5 1.1 5.5 1.7 5 1.7 5 1.1 5.5 2.2 5 1.7 5 2.2 5 2.2 5.5 2.2 5 2.8 4.4 2.2 5 2.8 5 2.8 4.4 2.8 5 3.3 4.4 2.8 4.4 3.3 4.4 3.3 4.4 3.3-3.3 4.4-2.8 4.4-3.3 4.4-3.3 4.4-3.3 5-2.8 4.4-3.3 4.4-3.3 4.4-2.8 4.4-3.3 4.4-3.3 4.4-2.8 4.4-3.3 5-3.3 4.4-3.3 4.4-2.8 4.4-3.3 4.4-4.4-3.3-5-2.8-4.4-2.8-4.4-3.3-5-2.2-4.4-2.8-5-2.2-4.4-2.2-5-2.2-4.4-2.2-5-1.7-4.4-2.2-6.1-1.7-5.5-1.7-5.5-1.7-5.5-1.1-5.5-1.1-5.5-1.1-5.5-.6-5.5-.6-5-.6h-12.1l-6.1 1.1-5.5 1.1-5 1.1-4.4 2.2-3.9 2.2-5 4.4-3.3 5-2.2 5-.6 5.5v1.1l.6 7.2 2.7 6.1 2.2 3.3 3.8 3.9 5 2.8 4.4 2.8 5.5 2.2 6.1 2.2 6.6 2.2 4.4 1.1 4.4 1.7 5 1.1 5 1.7 5.5 1.1 6.1 1.7 6.1 1.7 6.1 1.7 6.1 1.1 5.5 1.7 6.1 1.7 5.5 1.1 5.5 1.7 5.5 1.7 5 1.7 5.5 1.7 5 1.7 5 1.7 6.1 2.2 5.5 2.8 5.5 2.2 5.5 2.8 5 2.8 5 2.8 4.4 2.8 4.4 3.3 4.4 2.8 4.4 3.9 4.4 3.9 3.8 4.4 3.9 3.9 3.3 4.4 3.3 5 2.7 4.4 2.8 5 2.2 4.4 1.7 5 1.6 5 1.1 5 1.1 5.5 1.1 5.5.6 5.5.6 6.1V2122.5l-.4 6.5zM1553 2239.8h-315.4v-400.5h318v91h-213v65.5h191.5v85.5h-191.5v68.4H1558.4v91h-5.4zm-403.1 0h-100.8V2002.6l-2.8 4.4-3.3 5-2.8 4.4-3.3 4.4-2.8 5-3.3 4.4-2.7 4.4-2.8 5-3.3 4.4-2.8 4.4-3.3 4.4-2.7 5-3.3 4.4-2.7 4.4-2.8 5-3.3 4.5-2.7 4.4-3.3 5-2.7 4.4-3.3 4.4-2.7 5-2.8 4.4-3.3 4.4-2.7 5-3.3 4.5-2.7 4.4-3.3 4.4-2.8 5-2.7 4.5-3.3 4.4-2.7 5-3.3 4.4-2.8 4.4-3.3 5-2.8 4.4H942l-3.3-5-2.8-4.5-3.3-5-2.8-4.4-3.3-5-2.8-4.5-3.3-5-2.8-4.4-3.3-5-2.7-4.4-3.3-5-2.7-4.4-3.3-5-2.8-4.4-3.3-5-2.8-4.4-3.3-5-3.3-4.4-2.8-5-3.3-4.4-2.8-5-3.3-4.4-2.8-5-3.3-4.4-2.8-5-3.3-4.4-2.7-5-3.3-4.5-2.7-5-3.3-4.4-2.8-5-3.3-4.4-2.8-5-3.3-4.4V2239.6H733.5v-400.5h113l2.7 4.4 2.8 5 3.3 4.4 2.8 5 2.8 4.4 2.7 5 2.8 4.4 3.3 5 2.8 4.4 2.8 4.4 2.7 5 2.8 4.4 3.3 5 2.8 4.4 2.8 5 2.7 4.4 3.3 4.4 2.8 5 2.7 4.4 2.8 5 2.7 4.4 3.3 5 2.8 4.4 2.7 5 2.8 4.4 2.7 4.4 3.3 5 2.8 4.4 2.7 5 2.8 4.4 2.7 5 3.3 4.4 2.8 5 2.7 4.4 2.8-4.4 2.8-5 3.3-4.4 2.8-5 2.7-4.4 2.8-5 3.3-4.4 2.8-5 2.8-4.4 2.7-4.4 3.3-5 2.7-4.4 2.8-5 2.8-4.4 3.3-5 2.8-4.4 2.8-5 2.7-4.4 2.8-4.4 3.3-5 2.8-4.4 2.8-5 2.7-4.4 3.3-5 2.7-4.4 2.8-4.4 2.8-5 3.3-4.4 2.8-5 2.7-4.4 2.8-5 3.3-4.4 2.7-5 2.8-4.4h113v400.5h-5.6zm-640-166.2-1.7-5-2.2-5.5-2.2-5-1.7-5-2.2-5-2.2-5.5-1.7-5-2.2-5-2.2-5-1.7-5-2.2-5.5-1.6-5-2.2-5-2.2-5-1.7-5-2.2-5.6-2.2-5-1.7-5-2.2-5-2.2-5.5-1.7-5-2.2-5-2.2 5-1.7 5-2.2 5.5-2.2 5-1.6 5-2.2 5-2.2 5.6-2.2 5-1.7 5-2.2 5-2.2 5-1.6 5.5-2.2 5-2.2 5-1.7 5-2.2 5-2.2 5.5-2.2 5-1.6 5-2.2 5-2.2 5.5-1.7 5-2.2 5h93l-1.9-5zm173.2 166.2H575l-2.2-5-1.7-5-2.2-5-2.2-5.5-1.6-5-2.2-5-2.2-5-1.6-5-2.2-5-2.2-5-1.7-5-2.2-5.5-2.2-5-1.7-5-2.2-5H386.5l-2.2 5-1.7 5-2.2 5-2.2 5.5-1.6 5-2.2 5-2.2 5-1.7 5-2.2 5-2.2 5-1.7 5-2.2 5.5-2.2 5-1.7 5-2.2 5H244.5l2.2-5 2.2-5 2.2-5 2.2-5.5 1.7-5 2.2-5 2.2-5 2.2-5 2.2-5 2.2-5.5 2.2-5 2.2-5 1.7-5 2.2-5 2.2-5 2.2-5.5 2.2-5 2.2-5 2.2-5 2.2-5 1.7-5 2.2-5.5 2.2-5 2.2-5 2.2-5 2.2-5 2.2-5 2.2-5.5 1.7-5 2.2-5 2.2-5 2.2-5 2.2-5 2.2-5.5 2.2-5 2.2-5 1.7-5 2.2-5 2.2-5 2.2-5.5 2.2-5 2.2-5 2.2-5 2.2-5 1.7-5 2.2-5 2.2-5.5 2.2-5 2.2-5 2.2-5 2.2-5 2.2-5 1.7-5.5 2.2-5 2.2-5 2.2-5 2.2-5 2.2-5 2.2-5.5 2.2-5 1.7-5 2.2-5 2.2-5 2.2-5 2.2-5.5 2.2-5 2.2-5 2.2-5 1.6-5 2.2-5 2.2-5.5 2.2-5 2.2-5 2.2-5 2.2-5 2.2-5 1.7-5.5 2.2-5 2.2-5 2.2-5h102l2.2 5 2.2 5 2.2 5 2.2 5.5 1.7 5 2.2 5 2.2 5 2.2 5 2.2 5 2.2 5.5 2.2 5 2.2 5 1.6 5 2.2 5 2.2 5 2.2 5.5 2.2 5 2.2 5 2.2 5 2.2 5 1.7 5 2.2 5.5 2.2 5 2.2 5 2.2 5 2.2 5 2.2 5 2.2 5.5 1.7 5 2.2 5 2.2 5 2.2 5 2.2 5 2.2 5.5 2.2 5 2.2 5 1.6 5 2.2 5 2.2 5 2.2 5 2.2 5.5 2.2 5 2.2 5 2.2 5 1.7 5 2.2 5 2.2 5.5 2.2 5 2.2 5 2.2 5 2.2 5 2.2 5 1.7 5.5 2.2 5 2.2 5 2.2 5 2.2 5 2.2 5 2.2 5.5 2.2 5 1.6 5 2.2 5 2.2 5 2.2 5 2.2 5.5 2.2 5 2.2 5 2.2 5 1.7 5 2.2 5 2.2 5.5 2.2 5 2.2 5 2.2 5 2.2 5 2.2 5 1.7 5.5 2.2 5 2.2 5 2.2 5h-5zm-483.3-51.5-4.4 3.3-3.9 2.8-4.4 3.3-4.4 2.8-4.4 3.3-4.4 2.8-4.4 2.8-5 2.8-5 2.8-5 2.8-5 2.2-5 2.8-5.5 2.2-5 2.2-5.5 2.2-5 2.2-5 1.7-5 1.7-5 1.7-5.5 1.7-5 1.7-5.5 1.1-5 1.1-5.5 1.1-5.5 1.1-5.5.6-6.1.6-5.5.6-6.1.6-5.5.6-6.1.6H18.3l-5.5-.6-6.1-.6-5.5-.6-5.5-.6-5.5-.6-5.5-1.1-5.5-1.1-5-1.1-5.5-1.1-5-1.7-5.5-1.1-5-1.7-5-2.2-5-1.7-5.5-2.2-5-2.2-5-2.2-5-2.2-5-2.8-4.4-2.7-5-2.8-4.4-2.8-4.4-2.8-4.4-3.3-4.4-3.3-4.4-3.3-3.9-3.3-3.8-3.3-3.9-3.9-3.8-3.3-3.9-3.9-3.8-3.9-3.3-3.9-3.3-4.4-3.3-3.9-2.8-4.4-3.3-4.4-2.8-4.4-2.7-4.4-2.8-5-2.8-4.4-2.2-5-2.2-5-2.2-5-2.2-5-1.7-4.4-2.2-5-1.1-5-1.6-5-1.1-5.5-1.7-5-1.1-5.5-.6-5-1.1-5.5-.5-5-.6-5.5-.5-5.5-.6-5.5v-18.2l.6-6.1v-5.5l.5-5.5.6-6.1 1.1-5.5.6-5.5 1.1-5 1.7-5.5 1.1-5.5 1.6-5 1.7-5.5 1.7-5 2.2-5.5 2.2-5 2.2-5 2.2-5 2.2-5 2.8-5 2.8-4.4 2.7-4.4 2.8-4.4 2.8-4.4 3.3-4.4 3.3-4.4 3.3-4.4 3.3-3.9 3.8-3.9 3.3-3.9 3.9-3.9 3.9-3.9 3.8-3.3 4.4-3.9 3.9-3.3 4.4-3.3 4.4-2.8 4.4-3.3 4.4-2.8 4.4-2.8 5-2.8 5-2.8 5-2.8 5-2.2 5-2.2 5.5-2.8 4.4-1.7 5.5-1.7 5-2.2 5-1.1 5-1.7 5.5-1.1 5-1.7 5.5-1.1 5.5-.6 5.5-1.1 5.5-.6 5.5-.6 5.5-.6 5.5-.6H40.5l6.1.6 6.1.6H58l5.5.6 6.1 1.1 5 .6 5.5 1.1 5.5 1.1 5 1.1 5 1.1 5 1.1 5 1.7 5 1.1 4.4 1.7 5 1.7 5 2.2 5 2.2 5 2.2 5 2.8 5 2.2 4.4 2.8 5 2.8 4.4 2.8 5 2.8 4.4 3.3 4.4 2.8 4.4 3.3 4.4 3.3 4.4 3.9 4.4 3.3-3.3 4.4-3.8 3.9-3.3 4.4-3.8 4.4-3.3 4.4-3.3 3.9-3.9 4.4-3.3 4.4-3.3 3.9-3.9 4.4-3.3 4.4-3.9 4.4-3.3 3.9-3.3 4.4-3.9 4.4-3.3 4.4-3.9 3.9-3.3 4.4-4.4-3.3-4.4-3.9-4.4-2.8-4.4-3.3-4.4-2.8-4.4-2.8-4.4-2.8-5-2.8-4.4-2.2-4.4-2.2-4.4-1.7-5-1.7-5-1.7-5-1.1-5.5-1.1-5.5-1.1-5.5-.6-6.1-.6-6.1-.6H22.5l-5.5.6-5 .6-5.5 1.1-5 1.1-5 1.7-5 1.7-5 2.2-5 2.2-4.4 2.8-4.4 2.8-4.4 2.8-3.8 3.3-3.9 3.3-3.8 3.3-3.3 3.9-3.8 3.9-3.3 4.4-2.7 3.9-2.8 4.4-2.7 5-2.8 4.4-2.2 5-1.7 5-2.2 5-1.7 5.5-1.1 5.5-1.1 5-1.1 6.1-.6 5.5-.5 5.5v12.7l.5 5.5.6 5 .6 5.5 1.1 5 1.1 5 1.1 5 1.7 5 1.6 4.4 2.2 5.5 2.2 5 2.7 5 2.8 4.4 2.8 4.4 3.3 4.4 3.3 3.9 3.8 3.9 3.3 3.9 3.8 3.3 4.4 3.3 4.4 3.3 4.4 2.8 4.4 2.8 5 2.2 5 2.2 5 2.2 5.5 1.7 5.5 1.7 5.5 1.1 5.5 1.1 5.5.6 6.1.6h12.7l6.1-.6 6.1-.6 5.5-.6 5.5-1.1 5.5-1.1 5.5-1.7 5-1.1 5-2.2 4.4-2.2 5-2.2 3.9-2.2 4.4-2.8v-50.1H22v-80.5h181.5v179l-3.7 3.6z"/></g><g id="g30" transform="translate(312.995 481.16)"><path id="path32" class="st1" d="M332.6 728.9h239.1V544H332.6V166.4h248.6V-18.5H129.6v1334.7H585v-184.9H332.6V728.9z"/></g><g id="g34" transform="translate(590.07 474.677)"><path id="path36" class="st1" d="M1768.1 775.5v301.3c0 53.4-24.7 78.2-75.9 78.2h-38c-53.1 0-77.8-24.8-77.8-78.2V233.9c0-53.4 24.7-78.2 77.8-78.2h34.2c51.2 0 75.9 24.8 75.9 78.2v261.3h199.2V222.5c0-165.9-79.7-246-244.8-246H1620c-165.1 0-246.7 82-246.7 247.9v861.9c0 165.9 81.6 247.9 246.7 247.9h100.6c165.1 0 246.7-82 246.7-247.9V775.5h-199.2z"/></g><path id="path38" class="st1" d="M1653.1 1797.4h203.1V462.6h-203.1v1334.8z"/><g id="g40" transform="translate(428.326 506.146)"><path id="path42" class="st1" d="M930.1 549.5c0 53.4-24.6 78.2-75.9 78.2h-83.5v-492h83.5c51.2 0 75.9 24.8 75.9 78.2v335.6zm-43.6-593H567.7v1334.8h203V806.9h115.7c165.1 0 246.7-82 246.7-247.8V204.4c.1-165.9-81.5-247.9-246.6-247.9"/></g><g id="g44" transform="translate(357.642 190.875)"><path id="path46" d="M563.9 2813.4h1162.3L1133 3009l-569.1-195.6z" style="fill-rule:evenodd;clip-rule:evenodd;fill:#fff"/></g></g></g></svg>